# xmcd
#
# Track frame offsets:
#	182
#	15612
#	27090
#	41980
#	53025
#	64742
#	82647
#	101750
#	113605
#	125897
#	136240
#	149745
#
# Disc length: 2164
#
# Revision: 3
# Processed by: cddbd v1.5.1PL0 Copyright (c) Steve Scherf et al.
# Submitted via: DiscPlay 4.0.3
# Normalized: r1:TDELIM( - ),TSWAP
#
DISCID=a408720c
DTITLE=Various Artist - Clasicos De La Musica Country - CD1
DYEAR=1900
DGENRE=
TTITLE0=Tanya Tucker - Delta Town
TTITLE1=Sonny James and The Southern Gentleman - Young Love
TTITLE2=Glen Campbell - Rhinestone Cowboy
TTITLE3=Faron Young - Hellow Walls
TTITLE4=Glen Campbell and Bobbie Gentry - All I Have To Do Is Dream
TTITLE5=Gene Watson - Paper Rosie
TTITLE6=Juice Newton - Angel Of The Morning
TTITLE7=Tennnessee Ernie Ford - Sixteen Toons
TTITLE8=Wanda Jackson - Stand By Your Man
TTITLE9=Willie Nelson - There'll Be No Teardrops Tonight
TTITLE10=Tex Williams - Smoke! Smoke! Smoke! (That Cigarette)
TTITLE11=Tex Ritter - High Noon! (Do Not Forsake Me)
EXTD=
EXTT0=
EXTT1=
EXTT2=
EXTT3=
EXTT4=
EXTT5=
EXTT6=
EXTT7=
EXTT8=
EXTT9=
EXTT10=
EXTT11=
PLAYORDER=
